<mxfile host="app.diagrams.net" modified="2024-05-08T16:01:37.808Z" agent="Mozilla/5.0 (Windows NT 10.0; Win64; x64) AppleWebKit/537.36 (KHTML, like Gecko) Chrome/121.0.0.0 Safari/537.36 OPR/107.0.0.0" etag="MJl1yJWBQBAbx0Tj3U0d" version="24.3.1" type="github">
  <diagram name="Strona-1" id="3uMXgAUpboJgk4Wisi5h">
    <mxGraphModel dx="1249" dy="542" grid="1" gridSize="10" guides="1" tooltips="1" connect="1" arrows="1" fold="1" page="1" pageScale="1" pageWidth="1169" pageHeight="827" math="0" shadow="0">
      <root>
        <mxCell id="0" />
        <mxCell id="1" parent="0" />
      </root>
    </mxGraphModel>
  </diagram>
</mxfile>
